<?xml version="1.0" standalone="no"?>
<!DOCTYPE svg PUBLIC "-//W3C//DTD SVG 20010904//EN"
 "http://www.w3.org/TR/2001/REC-SVG-20010904/DTD/svg10.dtd">
<svg version="1.0" xmlns="http://www.w3.org/2000/svg"
 width="1200.000000pt" height="1200.000000pt" viewBox="0 0 1200.000000 1200.000000"
 preserveAspectRatio="xMidYMid meet">
<metadata>
Created by potrace 1.14, written by Peter Selinger 2001-2017
</metadata>
<g transform="translate(0.000000,1200.000000) scale(0.100000,-0.100000)"
fill="#000000" stroke="none">
<path d="M0 9655 l0 -1125 1123 2 1122 3 3 1123 2 1122 -1125 0 -1125 0 0
-1125z m1385 33 l163 -408 -87 0 -87 0 -33 90 -34 90 -171 0 -171 0 -31 -88
-31 -87 -86 -3 -87 -3 21 53 c12 29 82 208 156 398 74 190 137 351 140 358 4
9 28 12 90 10 l85 -3 163 -407z"/>
<path d="M1122 9883 c-16 -40 -102 -276 -102 -280 0 -2 52 -3 115 -3 63 0 115
2 115 4 0 5 -111 301 -115 304 -1 1 -7 -10 -13 -25z"/>
<path d="M2440 9660 l0 -1120 1120 0 1120 0 0 1120 0 1120 -1120 0 -1120 0 0
-1120z m1313 421 c55 -18 113 -73 131 -128 47 -137 -16 -263 -153 -304 l-41
-12 54 -48 c33 -30 83 -94 129 -166 106 -166 107 -153 -4 -153 l-94 0 -94 140
c-127 188 -143 203 -226 208 l-65 4 0 -176 0 -176 -80 0 -80 0 0 416 0 416
243 -5 c144 -3 257 -9 280 -16z"/>
<path d="M3390 9855 l0 -105 130 0 c176 0 210 18 210 110 0 33 -6 48 -29 71
l-29 29 -141 0 -141 0 0 -105z"/>
<path d="M4872 9658 l3 -1123 1123 -3 1122 -2 0 1125 0 1125 -1125 0 -1125 0
2 -1122z m1208 32 l0 -410 -80 0 -80 0 0 410 0 410 80 0 80 0 0 -410z"/>
<path d="M7310 9660 l0 -1120 1125 0 1125 0 0 1120 0 1120 -1125 0 -1125 0 0
-1120z m1278 420 c67 -29 126 -94 141 -156 7 -26 10 -49 7 -52 -3 -3 -39 -7
-79 -10 l-74 -4 -19 38 c-27 55 -63 77 -131 82 -46 3 -67 -1 -103 -20 -39 -20
-45 -28 -48 -59 -3 -31 2 -40 25 -56 37 -26 74 -40 156 -58 167 -38 252 -94
283 -187 32 -97 3 -200 -75 -271 -51 -46 -93 -58 -221 -64 -91 -4 -113 -2
-165 17 -75 28 -145 96 -169 165 -29 87 -26 92 53 100 79 8 86 6 96 -32 18
-74 80 -115 175 -116 88 0 160 51 160 115 0 42 -38 74 -116 97 -38 11 -101 29
-140 40 -147 43 -214 115 -214 232 0 55 5 72 29 110 53 85 142 121 286 116 67
-3 103 -9 143 -27z"/>
<path d="M9750 9660 l0 -1120 1120 0 1120 0 0 1120 0 1120 -1120 0 -1120 0 0
-1120z m1430 370 l0 -70 -225 0 -226 0 3 -92 3 -93 208 -3 207 -2 0 -65 0 -65
-210 0 -210 0 0 -115 0 -115 235 0 235 0 0 -70 0 -70 -315 0 -315 0 0 415 0
415 305 0 305 0 0 -70z"/>
<path d="M0 7215 l0 -1125 1123 2 1122 3 0 1120 0 1120 -1122 3 -1123 2 0
-1125z m1260 404 c130 -21 200 -97 200 -219 0 -109 -64 -191 -173 -221 l-35
-9 67 -68 c38 -38 96 -114 134 -175 37 -60 67 -110 67 -113 0 -2 -43 -4 -95
-4 l-94 0 -102 150 c-55 83 -112 158 -126 168 -15 9 -53 18 -89 20 l-64 4 0
-171 0 -171 -80 0 -80 0 0 410 0 410 203 0 c111 0 231 -5 267 -11z"/>
<path d="M950 7384 l0 -105 144 3 c137 3 146 4 170 27 50 47 42 137 -15 166
-20 11 -65 15 -164 15 l-135 0 0 -106z"/>
<path d="M2432 7218 l3 -1123 1123 -3 1122 -2 0 1125 0 1125 -1125 0 -1125 0
2 -1122z m1300 390 c146 -68 228 -209 228 -396 0 -239 -142 -402 -365 -419
-282 -22 -469 197 -426 495 15 103 46 177 102 237 77 84 166 116 309 112 78
-2 105 -8 152 -29z"/>
<path d="M3519 7500 c-64 -11 -122 -54 -154 -112 -25 -46 -30 -66 -33 -150 -5
-114 12 -176 65 -238 45 -52 104 -74 187 -68 54 3 72 9 103 34 79 64 103 124
104 256 1 132 -40 217 -123 256 -51 24 -100 31 -149 22z"/>
<path d="M4872 7218 l3 -1123 1123 -3 1122 -2 0 1125 0 1125 -1125 0 -1125 0
2 -1122z m958 120 c0 -322 3 -338 62 -382 40 -29 137 -34 189 -10 72 32 74 40
77 382 l3 302 81 0 80 0 -5 -317 c-4 -348 -7 -366 -63 -432 -53 -62 -119 -85
-244 -85 -133 -1 -187 14 -249 70 -84 75 -85 83 -89 447 l-3 317 80 0 81 0 0
-292z"/>
<path d="M7310 7215 l0 -1125 1125 0 1125 0 0 1125 0 1125 -1125 0 -1125 0 0
-1125z m1450 345 l0 -70 -120 0 -120 0 0 -340 0 -340 -80 0 -80 0 0 340 0 340
-125 0 -125 0 0 70 0 70 325 0 325 0 0 -70z"/>
<path d="M9750 7215 l0 -1125 1120 0 1120 0 0 1125 0 1125 -1120 0 -1120 0 0
-1125z m1430 345 l0 -70 -225 0 -226 0 3 -92 3 -93 208 -3 207 -2 0 -65 0 -65
-210 0 -210 0 0 -115 0 -115 235 0 235 0 0 -65 0 -65 -315 0 -315 0 0 410 0
410 305 0 305 0 0 -70z"/>
<path d="M0 4775 l0 -1125 1123 2 1122 3 0 1120 0 1120 -1122 3 -1123 2 0
-1125z m1317 390 c160 -47 197 -287 60 -386 -23 -16 -60 -34 -83 -40 l-42 -11
62 -61 c52 -51 206 -277 206 -301 0 -3 -42 -6 -92 -6 l-93 1 -99 145 c-54 79
-112 155 -127 169 -28 23 -98 41 -135 33 -18 -3 -19 -16 -22 -176 l-2 -172
-80 0 -80 0 0 410 0 410 238 0 c183 0 250 -3 289 -15z"/>
<path d="M952 4943 l3 -108 130 1 c99 1 138 5 161 17 63 33 70 123 13 171 -30
25 -35 26 -170 26 l-140 0 3 -107z"/>
<path d="M2440 4775 l0 -1125 1120 0 1120 0 0 1125 0 1125 -1120 0 -1120 0 0
-1125z m950 118 c0 -322 3 -336 69 -380 49 -33 154 -33 202 0 54 36 58 60 58
380 l1 287 81 0 80 0 -3 -317 -3 -318 -28 -56 c-47 -96 -136 -139 -287 -139
-160 0 -252 49 -304 160 -19 42 -21 66 -24 358 l-4 312 81 0 81 0 0 -287z"/>
<path d="M4870 4775 l0 -1125 1125 0 1125 0 0 1125 0 1125 -1125 0 -1125 0 0
-1125z m1032 63 l3 -343 208 -3 207 -2 0 -65 0 -65 -290 0 -290 0 0 410 0 410
80 0 80 0 2 -342z"/>
<path d="M7310 4775 l0 -1125 1125 0 1125 0 0 1125 0 1125 -1125 0 -1125 0 0
-1125z m1440 340 l0 -65 -225 0 -225 0 0 -95 0 -95 205 0 205 0 0 -65 0 -65
-205 0 -205 0 0 -115 0 -115 230 0 230 0 0 -70 0 -70 -310 0 -310 0 0 410 0
410 305 0 305 0 0 -65z"/>
<path d="M9750 4775 l0 -1125 1123 2 1122 3 0 1120 0 1120 -1122 3 -1123 2 0
-1125z m1289 383 c74 -37 119 -96 128 -167 l6 -41 -81 0 c-78 0 -80 1 -90 28
-15 41 -48 70 -94 83 -71 19 -164 -7 -189 -52 -30 -57 29 -101 185 -138 211
-50 286 -121 286 -270 0 -167 -131 -259 -352 -249 -82 3 -100 8 -157 38 -48
26 -72 47 -97 85 -29 44 -63 140 -53 149 2 2 38 6 80 10 l76 7 12 -40 c35
-120 207 -161 301 -73 43 41 48 83 13 122 -24 26 -48 36 -158 66 -149 40 -220
78 -258 137 -90 138 -7 299 174 337 24 5 80 7 123 5 66 -3 91 -9 145 -37z"/>
<path d="M0 2335 l0 -1125 1125 0 1125 0 -2 1123 -3 1122 -1122 3 -1123 2 0
-1125z m1276 384 c80 -14 126 -46 158 -110 64 -130 4 -283 -126 -320 -61 -18
-63 -23 -21 -52 21 -15 55 -48 75 -74 35 -47 158 -240 158 -249 0 -2 -42 -4
-93 -4 l-94 0 -68 103 c-143 216 -166 237 -260 237 l-55 0 0 -170 0 -170 -80
0 -80 0 0 410 0 410 213 0 c117 0 240 -5 273 -11z"/>
<path d="M958 2594 c-5 -4 -8 -54 -8 -112 l0 -104 139 4 c123 3 143 6 168 24
36 27 51 81 33 124 -22 54 -47 63 -193 68 -73 2 -135 1 -139 -4z"/>
<path d="M2437 3453 c-4 -3 -7 -510 -7 -1125 l0 -1118 1125 0 1125 0 0 1125 0
1125 -1118 0 c-615 0 -1122 -3 -1125 -7z m1433 -788 l0 -65 -225 0 -225 0 0
-95 0 -95 210 0 210 0 0 -70 0 -70 -210 0 -210 0 0 -115 0 -115 230 0 230 0 0
-65 0 -65 -310 0 -310 0 0 410 0 410 305 0 305 0 0 -65z"/>
<path d="M4877 3453 c-4 -3 -7 -510 -7 -1125 l0 -1118 1125 0 1125 0 0 1125 0
1125 -1118 0 c-615 0 -1122 -3 -1125 -7z m1318 -750 c133 -70 154 -236 42
-329 l-36 -30 44 -23 c147 -78 136 -301 -19 -384 -39 -21 -55 -22 -298 -25
l-258 -3 0 411 0 412 243 -4 c223 -3 245 -5 282 -25z"/>
<path d="M5830 2499 l0 -101 135 4 c132 3 135 4 162 31 21 20 28 37 28 67 0
77 -51 99 -222 100 l-103 0 0 -101z"/>
<path d="M5830 2155 l0 -115 130 0 c153 0 191 11 216 63 33 69 -4 139 -83 158
-21 5 -89 9 -150 9 l-113 0 0 -115z"/>
<path d="M7317 3453 c-4 -3 -7 -510 -7 -1125 l0 -1118 1125 0 1125 0 -2 1123
-3 1122 -1116 3 c-613 1 -1119 -1 -1122 -5z m953 -1015 c0 -259 2 -297 18
-328 49 -98 219 -108 286 -17 20 27 21 43 24 333 l3 304 80 0 81 0 -5 -317
c-3 -237 -7 -328 -18 -358 -20 -59 -86 -121 -150 -139 -68 -21 -229 -21 -295
-1 -63 19 -126 72 -156 133 -22 46 -23 55 -26 365 l-4 317 81 0 81 0 0 -292z"/>
<path d="M9750 2335 l0 -1125 1125 0 1125 0 -2 1123 -3 1122 -1122 3 -1123 2
0 -1125z m1250 376 c81 -42 121 -90 138 -169 l9 -40 -51 -6 c-91 -11 -116 -8
-116 13 0 27 -39 71 -76 87 -72 30 -177 10 -210 -41 -37 -56 15 -97 181 -140
122 -31 181 -57 223 -98 46 -44 65 -91 65 -167 1 -54 -4 -74 -28 -119 -52 -95
-136 -133 -295 -135 -95 0 -111 2 -168 28 -69 32 -115 77 -141 140 -25 59 -33
106 -18 107 6 0 42 3 79 7 66 8 67 8 73 -18 21 -82 88 -130 181 -130 68 0 120
23 145 64 45 73 7 121 -121 155 -147 38 -184 51 -237 87 -115 75 -133 214 -41
318 56 65 128 87 263 83 81 -3 109 -8 145 -26z"/>
</g>
</svg>
